<svg width="855" height="1262" viewBox="0 0 855 1262" fill="none" xmlns="http://www.w3.org/2000/svg">
<path d="M541.629 1.63916C516.894 7.79563 498.396 29.3433 489.577 62.1778C482.049 90.0871 480.759 103.221 483.555 119.228C485.061 127.436 487.642 145.085 489.147 158.014L491.943 182.024L502.698 183.255C529.154 186.128 545.286 195.773 554.965 214.653L560.772 226.35L562.493 218.552C565.504 205.213 574.753 189.412 584.647 180.587C590.024 175.867 594.326 171.353 594.326 170.532C594.326 169.711 598.628 158.834 603.79 146.316C616.696 116.15 620.567 100.348 620.782 80.8524C620.997 47.197 604.22 15.799 579.915 4.92261C571.096 0.818296 551.093 -0.82343 541.629 1.63916Z" fill="#FF40FF"/>
<path d="M377.085 13.1311C371.708 14.7729 362.029 19.4928 355.576 23.8023C329.765 41.0405 323.528 64.8455 336.003 99.9374C339.444 110.198 346.757 126.821 352.135 136.876C361.384 154.525 390.206 197.415 394.292 199.877C395.368 200.493 406.337 197.825 418.597 193.721C432.148 189.411 449.355 185.512 462.476 184.076L483.77 181.613L477.747 142.622C469.574 90.087 465.917 73.4645 458.604 54.9951C451.291 36.9362 439.031 22.3658 425.695 15.7989C414.296 10.2581 390.636 8.8216 377.085 13.1311Z" fill="#FF40FF"/>
<path d="M607.877 177.509C602.715 179.356 594.972 184.691 589.379 190.438C563.138 217.116 563.999 271.908 591.1 325.469C602.285 347.428 618.632 365.076 631.752 369.18C655.412 376.568 683.804 359.125 696.279 328.958C708.539 299.612 708.324 269.651 694.988 229.634C685.955 202.75 673.91 187.154 655.627 179.151C642.937 173.405 622.288 172.789 607.877 177.509Z" fill="#FF40FF"/>
<path d="M448.28 194.952C423.544 199.467 391.066 212.806 368.481 227.581C314.924 262.673 288.253 327.316 305.245 381.493C311.483 401.81 327.184 428.077 342.671 444.289C352.995 455.166 374.074 472.199 385.258 478.766C406.337 491.284 442.042 506.675 459.68 510.984C481.189 516.115 484.2 519.809 465.487 517.756L452.582 516.525L463.336 536.636C485.921 579.321 482.264 616.26 451.506 657.303C428.276 688.291 390.636 713.327 330.841 737.337C317.935 742.468 283.091 755.191 253.408 765.452C171.459 793.977 140.916 807.931 103.491 834.404C50.1486 871.959 12.938 929.214 2.8288 988.932C0.0326314 1006.38 0.0326314 1048.44 3.04389 1064.04C12.2928 1113.91 39.8242 1163.98 75.7442 1196.82C114.03 1231.5 157.263 1250.58 216.628 1259C249.537 1263.51 331.486 1262.07 364.18 1256.12C401.175 1249.35 481.619 1229.44 530.874 1214.67C583.356 1199.07 708.969 1165.83 759.945 1154.34C802.103 1144.69 865.554 1134.84 885.342 1134.63C888.784 1134.63 888.999 1128.27 888.999 1032.03V929.419H881.04C855.66 929.419 771.99 939.68 719.078 949.12C650.034 961.433 598.197 976.003 504.203 1009.86C425.05 1038.18 370.847 1050.5 325.248 1050.5C277.498 1050.5 245.88 1030.8 245.88 1001.04C246.095 972.104 275.133 950.146 343.746 927.162C353.21 924.084 385.258 914.438 414.726 905.819C558.191 863.955 613.469 839.329 657.132 797.671C679.501 776.533 704.022 737.132 714.346 705.734C730.263 658.534 723.595 598.611 694.988 529.249C687.675 511.395 669.607 481.639 666.596 482.665C665.52 483.075 658.853 490.463 651.54 499.492C627.019 529.659 629.17 519.193 655.196 482.254C676.705 451.677 688.32 417.816 690.471 380.467L691.761 357.893L682.943 365.486C666.596 379.646 647.023 384.161 628.74 378.415C599.918 369.385 572.387 324.033 563.783 272.113C562.492 263.494 560.557 256.312 559.911 256.312C559.051 256.312 557.33 259.8 556.04 264.11C547.651 290.583 520.55 310.694 489.362 313.156C458.819 315.619 419.028 298.586 408.058 278.68C405.262 273.345 405.262 272.729 408.273 272.729C410.209 272.729 416.662 276.423 422.899 280.732C454.517 303.101 486.351 308.436 514.312 295.918C525.497 290.993 540.123 276.423 545.5 264.931C551.953 251.386 551.953 229.839 545.285 217.936C539.478 207.47 528.938 199.467 515.603 195.568C504.418 192.284 463.981 191.874 448.28 194.952Z" fill="#FF40FF"/>
</svg>
