<svg width="710" height="1267" viewBox="0 0 710 1267" fill="none" xmlns="http://www.w3.org/2000/svg">
<path d="M295.333 1.65196C292.998 2.58606 290.195 3.98728 289.145 4.80462C283.657 9.35834 278.052 29.0911 271.864 65.4041C264.975 105.103 263.107 118.531 260.655 145.97C257.852 176.445 256.685 183.334 253.532 187.304C250.496 191.157 241.622 194.31 225.509 197.346C218.153 198.747 196.669 203.767 177.753 208.438C140.623 217.662 100.457 226.77 80.8408 230.272C39.0399 237.745 10.1996 247.32 -9.88349 260.747C-32.1851 275.576 -50.867 301.614 -61.1421 332.089C-70.4831 360.229 -72.8183 386.734 -71.7675 452.471C-70.7166 513.421 -67.9143 544.363 -62.66 554.988C-59.5074 561.293 -50.0497 574.02 -45.0289 578.808C-42.9272 580.909 -37.7897 583.945 -33.5862 585.697C-22.4938 590.134 -10.3505 596.439 -5.68005 600.175C1.55921 605.78 12.5349 608.349 53.4016 614.187C67.5299 616.172 88.08 619.324 98.9389 621.192C109.915 623.061 122.408 624.929 126.728 625.396L134.785 626.213L133.968 632.635C133.501 636.138 130.348 649.566 126.845 662.526C114.585 707.48 88.5471 809.88 81.5413 840.705L77.3379 858.804L77.4547 920.688C77.5714 996.817 78.1552 1008.26 84.2269 1047.96C89.9482 1085.56 91.2326 1092.21 97.7713 1118.02C102.909 1138.22 109.564 1174.41 110.849 1189.24C111.666 1199.4 111.549 1199.4 94.2684 1206.76C76.5206 1214.34 30.5162 1238.16 27.4804 1241.43C23.9776 1245.17 22.4596 1249.72 22.4596 1256.26V1261.87L29.8157 1262.68C33.7856 1263.03 74.4188 1263.62 119.956 1263.97C165.61 1264.32 229.246 1265.14 261.589 1265.95C323.006 1267.35 334.332 1266.89 338.885 1262.8C341.571 1260.35 345.891 1247.97 345.891 1242.83C345.891 1240.85 345.19 1237.35 344.256 1235.25C343.322 1232.91 342.388 1224.39 342.038 1214.34C341.221 1194.96 338.302 1169.62 332.58 1131.56C325.458 1084.5 325.574 1081.82 336.55 1060.8C344.957 1044.81 348.577 1034.88 355.232 1008.26L360.486 987.242L364.573 985.374C366.792 984.323 379.402 980.703 392.596 977.317C427.625 968.443 434.397 966.575 468.375 955.599C517.181 939.72 539.366 930.846 588.173 907.61C671.191 868.028 704.701 845.376 708.905 825.76C710.306 818.988 709.372 814.317 704.468 803.692C695.477 784.543 687.07 774.151 654.26 741.458C621.1 708.414 620.399 707.83 598.331 693.585C575.446 678.756 563.069 671.867 533.294 657.038C501.769 641.392 491.844 635.788 491.844 633.452C491.844 630.884 498.149 629.366 523.953 625.746C552.56 621.776 570.542 618.273 600.549 611.151C612.459 608.349 627.054 605.313 632.893 604.379C640.015 603.328 645.153 601.81 648.655 599.825C661.032 592.586 674.693 571.919 678.08 555.338C684.151 525.447 678.897 432.154 666.87 358.594C662.55 331.505 657.763 318.661 646.203 302.431C632.309 283.049 609.307 266.002 590.274 261.098C582.218 259.113 559.683 248.721 526.639 232.024C504.454 220.698 485.539 212.875 457.049 202.95C432.996 194.66 418.05 188.355 415.715 185.669C410.227 178.897 405.206 159.514 400.185 124.953C393.18 77.6642 385.006 36.0969 380.336 24.8877C377.183 17.1814 372.63 11.8103 367.375 9.24151C362.705 7.02303 361.654 6.90624 356.516 8.19062C348.577 10.0588 341.454 14.9629 339.819 19.5166C337.718 25.4715 334.799 24.5374 330.945 16.7143C324.29 3.05313 309.228 -3.25206 295.333 1.65196ZM315.533 27.9234C318.802 34.1118 319.386 48.3568 318.102 84.0861C317.284 103.702 315.883 145.737 314.949 177.496C312.731 248.838 311.68 258.879 305.725 263.783C303.857 265.301 287.86 271.139 265.792 278.379C253.415 282.465 230.413 286.785 202.857 290.171C156.036 295.893 141.907 298.812 120.423 306.868C102.909 313.407 96.954 316.793 91.2326 323.215C85.628 329.52 74.6524 350.187 72.5507 358.477C71.8501 361.63 71.0327 379.144 70.6825 401.329C70.0986 438.693 70.0986 438.927 72.7842 444.298C76.0535 450.836 87.4962 461.929 92.0499 463.096C93.9181 463.563 103.843 467.183 114.118 471.27C135.135 479.56 149.614 483.646 167.595 486.215C181.957 488.434 188.496 488.434 194.1 486.566C197.953 485.281 198.187 484.814 199.471 477.575C200.289 473.371 201.69 459.477 202.741 446.633C204.959 419.778 211.965 369.103 215.234 356.142C216.402 351.355 219.204 343.649 221.422 339.212C228.311 325.317 250.146 302.665 263.223 295.893C269.879 292.39 281.905 290.522 292.18 291.222C303.623 291.923 323.589 296.71 328.377 299.746C348.693 312.707 382.438 343.532 388.976 354.975C394.114 364.082 393.997 372.606 388.743 382.414C384.072 391.054 380.336 393.272 375.082 390.587C371.579 388.836 369.711 386.267 362.121 373.306C357.334 365.016 354.765 363.265 352.78 366.767C350.562 371.088 348.343 386.617 348.226 398.76C348.226 413.823 347.059 416.158 339.819 416.625C333.514 417.092 331.062 419.077 332.93 422.58C334.448 425.265 336.433 425.966 342.972 426.316C353.481 426.783 357.567 426.199 360.019 423.747C362.355 421.412 362.471 420.245 362.121 408.335C361.771 399.578 362.121 395.374 362.938 395.024C363.639 394.79 366.441 396.425 369.127 398.644C376.249 404.598 381.854 406 388.159 403.664C395.165 400.979 401.703 395.257 402.871 390.821C404.272 385.449 407.658 385.916 410.928 391.755C417.933 404.015 423.071 429.119 425.406 462.629C426.223 473.722 427.508 484.464 428.325 486.566C430.66 492.404 435.448 493.221 465.572 492.287C499.55 491.353 501.652 490.886 507.607 484.347C514.029 477.225 519.633 466.366 521.151 458.076C521.852 454.339 523.837 448.151 525.471 444.298L528.624 437.292V394.09C528.507 363.265 528.157 349.487 527.106 345.984C526.055 342.364 521.852 336.643 512.277 325.667C504.804 317.377 496.281 308.27 493.245 305.701C484.838 298.345 467.674 290.755 431.711 278.729C380.803 261.448 365.39 254.909 363.872 249.305C363.522 248.02 361.42 243 359.319 238.212C357.1 233.425 354.765 226.653 354.064 223.15C352.079 212.758 350.678 188.472 349.394 142.467C347.292 72.1764 350.328 25.705 356.983 25.705C364.807 25.705 389.677 129.04 392.479 172.825C392.946 181.232 393.88 187.421 394.814 188.472C397.617 191.858 411.862 197.579 442.804 207.854C474.213 218.246 495.113 226.186 512.861 234.359C526.756 240.781 561.901 261.098 579.999 273.124C620.866 300.213 638.264 330.921 652.509 401.679C655.428 416.041 655.661 419.777 655.661 443.714C655.778 458.192 655.194 487.85 654.494 509.684C653.092 552.536 652.509 556.623 645.853 570.634C641.883 579.041 637.563 582.544 626.704 586.164C614.561 590.25 553.027 603.561 526.872 607.765C513.095 609.983 497.565 612.902 492.428 614.187C487.29 615.354 473.979 617.222 462.887 618.273C440.352 620.258 433.813 622.126 432.645 626.797C431.127 633.219 443.037 640.341 502.703 668.364C567.973 699.073 598.798 716.237 624.953 736.553C637.797 746.595 664.302 773.1 674.46 786.177C684.501 799.138 692.675 814.551 692.675 820.739C692.675 835.801 660.799 857.636 603.936 881.572C591.442 886.943 572.643 895 562.251 899.787C505.972 925.241 462.186 939.72 376.249 961.554C364.339 964.59 351.379 968.56 347.409 970.311C340.87 973.347 339.936 974.281 336.784 980.47C332.23 989.461 329.661 998.101 328.377 1009.08C326.859 1021.92 320.787 1033.01 318.102 1027.88C315.416 1022.97 308.527 981.637 306.309 957.468C304.44 937.501 302.339 863.941 303.039 841.873C303.74 818.871 305.258 812.682 310.629 810.464C317.985 807.545 361.304 802.641 425.289 797.503C491.143 792.249 511.81 789.447 518.582 785.127C520.918 783.492 521.268 782.558 520.684 778.121C519.867 770.648 518.466 769.48 509.942 769.48C487.29 769.48 414.781 776.72 381.27 782.324C358.618 786.177 338.185 788.863 324.29 789.914C319.153 790.264 313.198 790.848 311.096 791.198L307.126 791.782L307.943 776.603L308.877 761.307H303.156C294.049 761.307 288.678 762.591 287.393 765.043C284.941 769.597 284.007 796.336 283.89 860.555C283.774 925.942 283.774 926.876 287.393 965.057C289.495 986.191 292.064 1012.81 293.348 1024.02C300.471 1088.47 304.557 1122.69 309.928 1161.8C314.716 1196.71 315.883 1209.09 316 1222.75C316.117 1233.03 315.65 1240.38 314.949 1241.08C313.548 1242.48 285.058 1244.12 231.464 1245.87C174.718 1247.74 83.7598 1249.14 75.5865 1248.32L68.5807 1247.62L74.1853 1244.24C77.2211 1242.37 92.2835 1235.13 107.463 1228.12C140.623 1212.83 140.857 1212.71 139.922 1208.97C139.455 1207.34 139.922 1204.65 140.973 1202.67C143.192 1198.35 143.192 1190.06 140.973 1172.78C138.638 1155.61 134.551 1136.23 129.297 1117.43C127.079 1109.49 124.393 1098.17 123.342 1092.33C122.408 1086.61 118.672 1067.46 115.286 1049.94C104.66 996.7 102.559 975.449 102.559 921.855C102.559 868.962 104.66 851.915 117.738 800.422C124.043 775.669 141.674 715.77 146.228 703.86C148.796 696.971 153.817 680.975 157.32 668.248C160.94 655.52 165.727 639.174 168.062 631.934C171.915 620.025 172.149 618.273 170.864 614.187C168.529 606.13 168.062 606.013 125.794 602.51C117.504 601.81 101.741 599.942 90.7656 598.424C79.9067 596.906 63.3264 594.804 53.9855 593.753C15.921 589.433 4.3615 585.113 -9.41645 569.817C-18.7574 559.425 -23.0776 551.485 -24.362 542.261C-24.9458 537.824 -27.0475 528.95 -29.0325 522.528C-31.0175 516.106 -32.8857 506.882 -33.2359 502.095C-33.4695 497.308 -34.8706 490.185 -36.155 486.332C-38.3735 479.677 -38.607 476.524 -38.607 430.286C-38.607 377.393 -37.7897 366.651 -31.718 336.876C-28.5655 321.931 -25.9967 315.392 -17.5898 300.68C-6.38063 281.064 3.31064 271.723 22.9267 261.448C38.2226 253.391 47.2132 250.589 77.3379 244.517C91.6997 241.715 108.28 237.979 114.118 236.461C119.839 234.943 134.318 231.44 146.228 228.871C158.021 226.303 172.966 222.683 179.505 220.815C185.927 218.946 206.36 214.159 224.925 210.189C260.304 202.6 271.28 199.681 275.367 196.878C281.555 192.441 283.89 182.867 291.013 133.126C298.252 81.8676 307.009 33.061 309.812 27.69C311.329 25.0044 314.015 25.1212 315.533 27.9234ZM338.068 263.783C344.607 268.22 351.846 270.555 366.091 272.657C383.021 275.226 388.159 276.627 427.741 288.42C447.357 294.258 466.039 300.563 469.893 302.665C477.599 306.752 485.422 313.874 496.865 327.419C511.577 344.699 514.729 355.675 513.445 383.581C512.044 412.772 506.906 444.998 500.017 467.066C494.763 483.88 494.646 483.88 478.766 484.347C471.294 484.581 463.821 484.23 461.369 483.53C457.516 482.362 456.932 481.662 455.764 476.641C454.13 469.168 452.378 454.923 451.561 440.795C450.744 426.316 448.408 414.99 443.154 400.045C432.645 369.803 419.685 352.873 388.86 329.053C360.37 306.985 335.849 291.573 320.554 286.085C316.467 284.567 312.614 282.699 311.913 281.881C309.928 279.546 311.446 277.211 315.299 276.393C317.635 275.926 321.021 273.124 325.574 268.103C329.428 263.9 332.58 260.514 332.814 260.397C333.047 260.397 335.382 261.915 338.068 263.783ZM231.347 299.979C233.332 301.264 232.048 303.366 226.21 308.153C212.315 319.479 201.456 333.257 192.933 350.304C182.891 370.154 178.454 385.683 173.667 416.742C171.915 427.951 169.58 440.328 168.296 444.181C167.128 448.151 165.727 455.157 165.26 459.827C164.209 472.087 163.975 472.321 152.766 469.402C141.207 466.366 120.54 458.776 107.93 452.938C100.574 449.552 98.0048 447.8 97.0707 445.232C94.969 440.328 94.2684 393.506 96.0199 379.962C98.7054 358.711 105.828 337.46 113.184 329.287C118.905 322.865 129.881 316.793 143.425 312.59C155.919 308.62 166.895 306.518 192.816 303.015C204.609 301.497 214.534 299.863 214.884 299.512C215.935 298.462 229.596 298.929 231.347 299.979Z" fill="#4FFF23"/>
<path d="M278.753 355.091C278.286 355.675 277.936 358.828 277.936 361.863C278.052 375.758 292.297 398.76 302.222 401.212C303.857 401.679 307.71 401.679 310.862 401.446C324.757 400.045 335.266 385.566 335.383 367.585C335.383 360.346 333.748 356.376 330.128 354.974C324.407 352.756 322.422 355.208 318.452 369.57C315.299 380.779 310.512 388.836 306.776 388.836C304.09 388.836 298.135 381.596 293.465 372.606C288.327 362.681 282.256 353.807 280.621 353.807C279.921 353.807 279.103 354.391 278.753 355.091Z" fill="#4FFF23"/>
<path d="M287.627 427.25C285.291 431.454 290.195 441.845 297.435 448.267C302.572 452.704 311.096 455.39 323.706 456.207C332.697 456.791 333.981 456.557 336.9 454.222C340.637 451.303 340.987 447.8 337.718 446.049C336.55 445.348 332.23 444.531 328.143 444.181C313.898 443.013 313.197 442.663 305.725 435.657C294.165 424.681 289.962 422.813 287.627 427.25Z" fill="#4FFF23"/>
<path d="M310.511 27.69C308.176 31.7767 297.784 90.6248 292.18 131.725C285.641 179.481 282.138 193.376 275.366 197.696C271.046 200.615 258.435 203.884 228.544 210.189C213.132 213.459 193.399 218.012 184.758 220.231C176.118 222.566 158.02 226.886 144.475 230.039C131.048 233.192 112.366 237.512 103.025 239.847C93.6838 242.065 78.6215 245.335 69.514 246.969C42.8923 251.757 21.2912 260.631 5.17805 273.358C-4.16293 280.831 -10.001 288.42 -19.2253 304.884C-27.3986 319.596 -30.4344 329.987 -34.8714 359.645C-37.3234 375.174 -37.5569 380.896 -37.5569 429.119C-37.6737 481.078 -37.6737 481.778 -34.9882 487.85C-33.3535 491.82 -32.4194 496.374 -32.4194 500.694C-32.4194 504.897 -30.9015 512.954 -28.3327 521.828C-26.1142 529.768 -23.8958 538.992 -23.5455 542.261C-22.4946 550.551 -16.7733 560.826 -8.01608 570.167C5.87862 584.879 16.8543 588.849 55.7361 593.169C62.158 593.87 78.9718 595.972 93.1 597.84C107.228 599.825 128.596 602.043 140.505 603.094C152.415 604.028 163.624 605.313 165.259 605.897C168.995 607.414 171.915 612.669 171.915 618.273C171.915 620.609 170.397 627.381 168.412 633.219C166.543 639.174 162.107 654.353 158.604 666.963C154.984 679.574 149.846 696.154 147.044 703.743C144.125 711.333 137.353 733.284 131.865 752.55C106.411 842.223 103.025 862.073 103.025 922.906C103.025 971.362 105.594 996.466 115.285 1046.21C118.788 1063.84 122.641 1084.15 123.925 1091.28C125.21 1098.4 128.129 1110.66 130.464 1118.72C136.069 1138.1 139.922 1157.71 142.257 1178.38C144.125 1194.61 144.125 1195.9 142.257 1200.8C141.089 1203.72 140.505 1207.22 140.973 1208.51C142.14 1212.24 137.47 1215.51 119.138 1223.69C110.031 1227.77 95.085 1234.78 86.0943 1239.33L69.7476 1247.62L83.1752 1247.97C108.279 1248.67 260.187 1244.82 297.901 1242.48C308.877 1241.78 313.781 1240.97 314.598 1239.92C317.167 1236.18 314.598 1201.38 308.643 1157.71C301.637 1105.87 293.347 1034.41 286.692 967.392C283.89 938.786 283.539 930.262 283.189 876.785C282.722 812.916 283.89 770.531 286.342 765.861C288.56 761.657 289.611 761.307 300.119 761.307H309.694L308.993 776.019L308.176 790.731L316.816 789.914C337.834 788.046 357.567 785.477 380.335 781.74C393.88 779.522 414.313 776.603 425.872 775.319C455.647 772.049 512.277 767.963 515.779 768.78C520.917 770.064 523.719 780.223 520.216 784.426C516.363 788.98 497.798 792.249 456.231 795.635C388.392 801.24 373.446 802.524 351.028 805.093C319.268 808.713 311.095 810.114 308.526 812.682C304.089 817.119 303.506 825.877 304.206 878.653C304.673 906.209 305.491 936.684 306.191 946.375C308.41 978.368 316.583 1027.29 319.852 1028.34C322.304 1029.16 326.041 1019.7 327.325 1009.66C329.31 994.131 335.265 978.368 341.57 972.53C344.839 969.611 360.602 964.473 388.976 957.468C457.982 940.304 508.19 923.373 561.9 899.087C574.394 893.482 592.609 885.542 602.183 881.572C636.628 867.21 662.316 853.432 678.546 840.238C693.141 828.562 694.893 822.14 687.653 807.778C681.582 795.752 670.139 781.04 654.376 764.576C620.865 729.898 591.558 711.099 509.941 672.568C488.107 662.176 463.47 650.149 455.063 645.946C440.701 638.59 431.127 631.467 431.127 628.315C431.127 627.498 432.528 625.396 434.396 623.644C438.016 619.908 439.417 619.675 466.622 617.106C476.781 616.055 487.873 614.537 491.143 613.603C494.412 612.669 508.423 610.1 522.201 607.882C535.979 605.546 552.326 602.744 558.398 601.46C581.867 596.556 621.216 587.215 628.338 584.879C641.299 580.559 647.254 571.802 651.107 551.369C653.092 541.327 654.726 490.652 654.726 444.881C654.726 413.939 653.909 407.518 645.969 375.875C636.278 337.343 621.683 309.204 601.833 290.639C587.355 277.094 541.234 248.254 513.327 235.293C497.681 227.937 466.039 216.027 442.219 208.438C417.466 200.615 399.601 193.376 395.748 189.873C393.296 187.654 392.829 185.786 392.128 175.628C388.859 129.39 364.572 26.8726 356.866 26.8726C354.998 26.8726 353.363 32.7107 351.495 46.1384C349.51 59.9164 349.627 153.91 351.612 187.421C353.363 219.063 354.414 225.018 360.019 237.395C362.471 243 364.572 248.371 364.572 249.305C364.572 253.508 383.371 261.681 428.208 276.744C479.817 294.025 488.574 298.578 504.103 315.859C509.241 321.581 516.246 329.287 519.633 333.023C523.019 336.76 526.288 341.313 526.989 343.065C528.857 347.852 530.608 387.785 530.141 413.356C529.674 435.774 529.557 436.241 525.938 445.115C523.836 450.019 522.201 455.624 522.201 457.492C522.201 462.396 513.911 478.275 507.956 484.931C502.936 490.419 502.819 490.535 493.128 491.703C487.756 492.287 472.461 492.987 459.266 493.104C438.483 493.338 434.746 493.104 431.594 491.353C429.609 490.185 427.507 488.434 427.157 487.266C426.69 486.099 425.872 477.808 425.289 468.818C423.187 436.942 419.334 414.29 413.729 399.111C409.876 389.069 404.271 382.997 404.271 388.952C404.271 395.374 391.428 405.182 382.904 405.182C378 405.182 370.994 402.03 367.608 398.293C366.324 396.892 364.572 395.841 363.638 395.841C362.237 395.841 362.003 397.593 362.704 407.284C363.755 420.712 362.704 424.215 357.45 426.083C352.429 427.834 339.001 427.717 335.382 425.849C331.061 423.747 330.711 418.376 334.798 416.859C336.433 416.275 339.352 415.691 341.103 415.691C346.124 415.691 347.058 413.823 347.058 403.431C347.058 383.932 350.794 364.315 354.531 364.315C356.866 364.315 361.653 370.27 365.74 378.093C369.827 385.8 374.964 391.171 378.467 391.171C384.772 391.171 391.778 379.378 391.895 368.402C392.011 362.214 391.428 360.346 387.925 354.507C378.7 339.212 334.915 301.964 321.137 297.644C308.293 293.558 294.515 291.573 283.072 292.156C273.614 292.74 271.162 293.324 263.806 296.944C253.882 301.848 246.059 308.62 234.266 322.048C224.458 333.257 219.67 342.131 216.284 355.558C213.132 367.935 206.359 415.808 204.024 441.379C201.572 469.635 200.054 482.245 198.653 484.697C197.018 487.967 193.049 488.434 177.286 487.733C159.071 486.916 140.622 482.362 114.234 472.204C87.9625 462.162 85.277 460.761 78.9718 453.989C68.8135 443.13 68.6967 442.546 69.514 401.679C69.9811 382.063 70.7984 363.381 71.3822 360.229C72.9002 352.99 84.6931 329.52 90.0642 323.215C95.4353 316.91 100.106 314.108 116.336 307.803C138.871 298.812 154.283 295.426 191.764 290.755C237.768 285.151 256.684 281.414 275.249 274.409C281.671 271.957 290.078 269.038 293.931 267.987C305.374 264.717 307.008 263.433 308.993 256.777C311.329 248.838 312.963 224.551 314.364 172.825C314.948 149.356 316.116 114.328 316.816 94.945C318.334 56.0632 317.867 35.046 315.532 30.0252C314.014 26.9894 311.562 25.8218 310.511 27.69ZM285.407 357.543C287.042 359.645 290.545 365.833 293.464 371.204C302.571 388.602 307.709 391.521 312.847 382.414C314.248 379.845 316.349 374.357 317.4 370.154C320.903 357.076 322.538 354.391 327.442 354.04C333.747 353.457 335.965 357.31 335.849 368.869C335.849 379.378 333.28 385.917 326.508 393.506C310.511 411.137 290.662 402.964 279.803 374.124C274.081 358.711 277.818 347.502 285.407 357.543ZM295.099 425.966C297.084 427.25 301.287 430.87 304.673 434.139C311.796 441.262 314.131 442.313 325.223 443.247C339.352 444.414 343.438 447.217 339.118 452.938C336.316 456.674 330.945 457.959 321.487 457.025C305.374 455.507 295.916 450.369 289.844 439.977C285.991 433.088 285.407 428.418 288.21 425.732C290.428 423.397 290.779 423.397 295.099 425.966Z" fill="#F6FF71"/>
</svg>
